<svg width="23" height="22" viewBox="0 0 23 22" fill="none" xmlns="http://www.w3.org/2000/svg">
<g clip-path="url(#clip0_80_1903)">
<path d="M21.2782 17.2222C21.2782 17.6937 21.0909 18.1459 20.7575 18.4793C20.4241 18.8127 19.9719 19 19.5004 19H3.50043C3.02894 19 2.57675 18.8127 2.24336 18.4793C1.90996 18.1459 1.72266 17.6937 1.72266 17.2222V7.44444C1.72266 6.97295 1.90996 6.52076 2.24336 6.18737C2.57675 5.85397 3.02894 5.66667 3.50043 5.66667H7.05599L8.83377 3H14.1671L15.9449 5.66667H19.5004C19.9719 5.66667 20.4241 5.85397 20.7575 6.18737C21.0909 6.52076 21.2782 6.97295 21.2782 7.44444V17.2222Z" stroke="#1F4062" stroke-width="1.5" stroke-linecap="round" stroke-linejoin="round"/>
<path d="M11.4989 15.4444C13.4626 15.4444 15.0545 13.8525 15.0545 11.8888C15.0545 9.92513 13.4626 8.33325 11.4989 8.33325C9.53524 8.33325 7.94336 9.92513 7.94336 11.8888C7.94336 13.8525 9.53524 15.4444 11.4989 15.4444Z" stroke="#1F4062" stroke-width="1.5" stroke-linecap="round" stroke-linejoin="round"/>
</g>
<defs>
<clipPath id="clip0_80_1903">
<rect width="21.3333" height="21.3333" fill="white" transform="translate(0.833008 0.333252)"/>
</clipPath>
</defs>
</svg>
