<svg width="20" height="20" viewBox="0 0 20 20" fill="none" xmlns="http://www.w3.org/2000/svg">
<path d="M8.9124 9.87596V0.874045C8.9124 0.543144 8.64423 0.274194 8.31256 0.274194H0.850231C0.519329 0.274194 0.250391 0.542381 0.250391 0.874045V9.87596C0.250391 10.2069 0.518565 10.4758 0.850231 10.4758H8.31256C8.64347 10.4758 8.9124 10.2076 8.9124 9.87596ZM12.2883 10.7722H18.55V18.5742H12.2883V10.7722ZM19.7504 19.1743V10.1724C19.7504 9.84153 19.4822 9.57258 19.1506 9.57258H11.6882C11.3573 9.57258 11.0884 9.84076 11.0884 10.1724V19.1743C11.0884 19.5054 11.3572 19.7742 11.6882 19.7742H19.1506C19.4815 19.7742 19.7504 19.506 19.7504 19.1743ZM12.2883 1.47383H18.55V6.28522H12.2883V1.47383ZM19.7504 6.885V0.874045C19.7504 0.543144 19.4822 0.274194 19.1506 0.274194H11.6882C11.3573 0.274194 11.0884 0.542381 11.0884 0.874045V6.885C11.0884 7.21603 11.3572 7.48486 11.6882 7.48486H19.1506C19.4816 7.48486 19.7504 7.216 19.7504 6.885ZM1.45088 1.47383H7.71262V9.27583H1.45088V1.47383ZM8.91296 19.174V13.163C8.91296 12.8321 8.64479 12.5632 8.31312 12.5632H0.850791C0.51977 12.5632 0.250951 12.832 0.250951 13.163V19.174C0.250951 19.5049 0.519125 19.7738 0.850791 19.7738H8.31312C8.64403 19.7738 8.91296 19.5057 8.91296 19.174ZM1.45088 13.7628H7.71262V18.5742H1.45088V13.7628Z" fill="#1D9BF0" stroke="#1D9BF0" stroke-width="0.3"/>
</svg>
