<svg width="24" height="24" viewBox="0 0 24 24" fill="none" xmlns="http://www.w3.org/2000/svg">
<path d="M11 4.00049H4C3.46957 4.00049 2.96086 4.2112 2.58579 4.58627C2.21071 4.96135 2 5.47006 2 6.00049V20.0005C2 20.5309 2.21071 21.0396 2.58579 21.4147C2.96086 21.7898 3.46957 22.0005 4 22.0005H18C18.5304 22.0005 19.0391 21.7898 19.4142 21.4147C19.7893 21.0396 20 20.5309 20 20.0005V13.0005" stroke="#1F4062" stroke-width="1.5" stroke-linecap="round" stroke-linejoin="round"/>
<path d="M18.5 2.50071C18.8978 2.10289 19.4374 1.87939 20 1.87939C20.5626 1.87939 21.1022 2.10289 21.5 2.50071C21.8978 2.89854 22.1213 3.43811 22.1213 4.00071C22.1213 4.56332 21.8978 5.10289 21.5 5.50071L12 15.0007L8 16.0007L9 12.0007L18.5 2.50071Z" stroke="#1F4062" stroke-width="1.5" stroke-linecap="round" stroke-linejoin="round"/>
</svg>
