<svg width="24" height="24" viewBox="0 0 24 24" fill="none" xmlns="http://www.w3.org/2000/svg">
<g clip-path="url(#clip0_1_433)">
<path d="M19 11H5C3.89543 11 3 11.9768 3 13.1818V20.8182C3 22.0232 3.89543 23 5 23H19C20.1046 23 21 22.0232 21 20.8182V13.1818C21 11.9768 20.1046 11 19 11Z" stroke="#1F4062" stroke-width="1.5" stroke-linecap="round" stroke-linejoin="round"/>
<path d="M7 11V7C7 5.67392 7.52678 4.40215 8.46447 3.46447C9.40215 2.52678 10.6739 2 12 2C13.3261 2 14.5979 2.52678 15.5355 3.46447C16.4732 4.40215 17 5.67392 17 7V11" stroke="#1F4062" stroke-width="1.5" stroke-linecap="round" stroke-linejoin="round"/>
<g clip-path="url(#clip1_1_433)">
<path d="M12.0003 18.0225C12.5651 18.0225 13.023 17.5646 13.023 16.9998C13.023 16.4349 12.5651 15.9771 12.0003 15.9771C11.4354 15.9771 10.9775 16.4349 10.9775 16.9998C10.9775 17.5646 11.4354 18.0225 12.0003 18.0225Z" stroke="#1F4062" stroke-width="0.8" stroke-linecap="round" stroke-linejoin="round"/>
<path d="M14.5227 18.0225C14.4773 18.1253 14.4638 18.2394 14.4839 18.35C14.5039 18.4605 14.5566 18.5626 14.6352 18.6429L14.6557 18.6634C14.7191 18.7267 14.7694 18.8019 14.8037 18.8847C14.838 18.9675 14.8557 19.0562 14.8557 19.1458C14.8557 19.2354 14.838 19.3241 14.8037 19.4069C14.7694 19.4896 14.7191 19.5648 14.6557 19.6282C14.5924 19.6916 14.5172 19.7418 14.4344 19.7762C14.3516 19.8105 14.2629 19.8281 14.1733 19.8281C14.0837 19.8281 13.995 19.8105 13.9122 19.7762C13.8294 19.7418 13.7542 19.6916 13.6909 19.6282L13.6705 19.6077C13.5901 19.5291 13.4881 19.4764 13.3775 19.4563C13.2669 19.4363 13.1528 19.4498 13.05 19.4952C12.9492 19.5384 12.8632 19.6102 12.8026 19.7016C12.742 19.7931 12.7095 19.9003 12.7091 20.01V20.0679C12.7091 20.2488 12.6373 20.4222 12.5094 20.5501C12.3815 20.6779 12.2081 20.7498 12.0273 20.7498C11.8464 20.7498 11.673 20.6779 11.5452 20.5501C11.4173 20.4222 11.3455 20.2488 11.3455 20.0679V20.0373C11.3428 19.9244 11.3063 19.815 11.2406 19.7232C11.175 19.6314 11.0832 19.5614 10.9773 19.5225C10.8744 19.4771 10.7604 19.4636 10.6498 19.4836C10.5392 19.5037 10.4372 19.5564 10.3568 19.635L10.3364 19.6554C10.273 19.7188 10.1978 19.7691 10.1151 19.8034C10.0323 19.8377 9.94358 19.8554 9.85398 19.8554C9.76438 19.8554 9.67565 19.8377 9.59288 19.8034C9.51011 19.7691 9.43491 19.7188 9.37159 19.6554C9.3082 19.5921 9.25791 19.5169 9.2236 19.4341C9.18928 19.3514 9.17162 19.2627 9.17162 19.1731C9.17162 19.0834 9.18928 18.9947 9.2236 18.912C9.25791 18.8292 9.3082 18.754 9.37159 18.6907L9.39205 18.6702C9.47064 18.5899 9.52336 18.4878 9.54341 18.3772C9.56346 18.2666 9.54993 18.1526 9.50455 18.0498C9.46133 17.9489 9.38958 17.8629 9.29811 17.8024C9.20665 17.7418 9.09947 17.7093 8.98977 17.7088H8.93182C8.75099 17.7088 8.57757 17.637 8.4497 17.5091C8.32183 17.3813 8.25 17.2079 8.25 17.027C8.25 16.8462 8.32183 16.6728 8.4497 16.5449C8.57757 16.417 8.75099 16.3452 8.93182 16.3452H8.9625C9.07534 16.3426 9.18477 16.306 9.27658 16.2404C9.36838 16.1747 9.43831 16.083 9.47727 15.977C9.52265 15.8742 9.53619 15.7601 9.51614 15.6496C9.49609 15.539 9.44336 15.4369 9.36477 15.3566L9.34432 15.3361C9.28093 15.2728 9.23063 15.1976 9.19632 15.1148C9.16201 15.0321 9.14435 14.9433 9.14435 14.8537C9.14435 14.7641 9.16201 14.6754 9.19632 14.5926C9.23063 14.5099 9.28093 14.4347 9.34432 14.3713C9.40764 14.308 9.48284 14.2577 9.56561 14.2234C9.64838 14.189 9.7371 14.1714 9.8267 14.1714C9.91631 14.1714 10.005 14.189 10.0878 14.2234C10.1706 14.2577 10.2458 14.308 10.3091 14.3713L10.3295 14.3918C10.4099 14.4704 10.5119 14.5231 10.6225 14.5432C10.7331 14.5632 10.8472 14.5497 10.95 14.5043H10.9773C11.0781 14.4611 11.1641 14.3893 11.2247 14.2979C11.2852 14.2064 11.3177 14.0992 11.3182 13.9895V13.9316C11.3182 13.7507 11.39 13.5773 11.5179 13.4495C11.6457 13.3216 11.8192 13.2498 12 13.2498C12.1808 13.2498 12.3543 13.3216 12.4821 13.4495C12.61 13.5773 12.6818 13.7507 12.6818 13.9316V13.9623C12.6823 14.072 12.7148 14.1791 12.7753 14.2706C12.8359 14.3621 12.9219 14.4338 13.0227 14.477C13.1256 14.5224 13.2396 14.5359 13.3502 14.5159C13.4608 14.4958 13.5628 14.4431 13.6432 14.3645L13.6636 14.3441C13.727 14.2807 13.8022 14.2304 13.8849 14.1961C13.9677 14.1618 14.0564 14.1441 14.146 14.1441C14.2356 14.1441 14.3243 14.1618 14.4071 14.1961C14.4899 14.2304 14.5651 14.2807 14.6284 14.3441C14.6918 14.4074 14.7421 14.4826 14.7764 14.5654C14.8107 14.6481 14.8284 14.7369 14.8284 14.8265C14.8284 14.9161 14.8107 15.0048 14.7764 15.0876C14.7421 15.1703 14.6918 15.2455 14.6284 15.3088L14.608 15.3293C14.5294 15.4096 14.4766 15.5117 14.4566 15.6223C14.4365 15.7329 14.4501 15.8469 14.4955 15.9498V15.977C14.5387 16.0779 14.6104 16.1639 14.7019 16.2244C14.7933 16.285 14.9005 16.3175 15.0102 16.3179H15.0682C15.249 16.3179 15.4224 16.3898 15.5503 16.5176C15.6782 16.6455 15.75 16.8189 15.75 16.9998C15.75 17.1806 15.6782 17.354 15.5503 17.4819C15.4224 17.6097 15.249 17.6816 15.0682 17.6816H15.0375C14.9278 17.682 14.8206 17.7145 14.7292 17.7751C14.6377 17.8357 14.5659 17.9217 14.5227 18.0225V18.0225Z" stroke="#1F4062" stroke-width="0.8" stroke-linecap="round" stroke-linejoin="round"/>
</g>
</g>
<defs>
<clipPath id="clip0_1_433">
<rect width="24" height="24" fill="white"/>
</clipPath>
<clipPath id="clip1_1_433">
<rect width="10" height="10" fill="white" transform="translate(7 12)"/>
</clipPath>
</defs>
</svg>
