<svg width="24" height="25" viewBox="0 0 24 25" fill="none" xmlns="http://www.w3.org/2000/svg">
<path d="M9.25312 7.31143C10.7391 5.87752 13.1981 5.87442 14.6883 7.30216L14.6956 7.30939C16.1845 8.79276 16.1816 11.1783 14.6976 12.6348C14.5188 12.8102 14.3149 12.9665 14.0883 13.1395L13.613 13.5024L14.1428 13.7798C14.4818 13.9573 14.8235 14.203 15.1193 14.4933C15.9198 15.2788 16.4192 16.3513 16.4192 17.5565C16.4192 17.6598 16.3831 17.7125 16.3445 17.7453C16.2976 17.7851 16.2214 17.8146 16.1304 17.8146C16.0394 17.8146 15.9633 17.7851 15.9163 17.7453C15.8777 17.7125 15.8416 17.6598 15.8416 17.5565C15.8416 16.4985 15.399 15.5502 14.7104 14.8746C13.2236 13.4154 10.7805 13.4145 9.29262 14.872C8.57124 15.5541 8.1588 16.5062 8.1588 17.5565C8.1588 17.6598 8.12268 17.7125 8.08404 17.7453C8.03711 17.7851 7.96094 17.8146 7.86997 17.8146C7.779 17.8146 7.70283 17.7851 7.6559 17.7453C7.61727 17.7125 7.58115 17.6598 7.58115 17.5565C7.58115 16.3513 8.08061 15.2787 8.88104 14.4933L8.88649 14.4879L8.89173 14.4823C9.15621 14.2011 9.49274 13.9578 9.83282 13.7798L10.4402 13.4618L9.84942 13.114C9.64018 12.9908 9.44249 12.8206 9.25314 12.6348C7.76982 11.1791 7.76619 8.79497 9.25312 7.31143ZM14.2915 7.69571L14.2916 7.69569L14.2886 7.69275C13.0241 6.45186 10.9261 6.45184 9.66176 7.69277L9.66175 7.69275L9.65881 7.6957C8.39599 8.96254 8.39168 11.0071 9.66179 12.2535C10.9262 13.4942 13.0242 13.4944 14.2886 12.2534C15.5587 11.007 15.5544 8.96261 14.2915 7.69571Z" fill="#1D9BF0" stroke="#1D9BF0" stroke-width="0.761905"/>
<mask id="path-2-inside-1_48_101" fill="white">
<rect x="2.40039" y="2.42419" width="19.2" height="19.2" rx="1"/>
</mask>
<rect x="2.40039" y="2.42419" width="19.2" height="19.2" rx="1" stroke="#1D9BF0" stroke-width="2.6" mask="url(#path-2-inside-1_48_101)"/>
</svg>
