<svg width="44" height="40" viewBox="0 0 44 40" fill="none" xmlns="http://www.w3.org/2000/svg">
<path d="M38.8235 0H4.31373C3.16979 0 2.07247 0.454481 1.26333 1.26333C0.454508 2.0725 0 3.16988 0 4.31373V35.6863C0 36.8302 0.454481 37.9275 1.26333 38.7367C2.0725 39.5455 3.16988 40 4.31373 40H38.8235C39.9675 40 41.0648 39.5455 41.8739 38.7367C42.6828 37.9275 43.1373 36.8301 43.1373 35.6863V4.31373C43.1373 3.16979 42.6828 2.07247 41.8739 1.26333C41.0648 0.454508 39.9674 0 38.8235 0ZM2.35249 4.31373C2.35249 3.79377 2.55908 3.29483 2.92672 2.92715C3.29436 2.55946 3.79332 2.35292 4.31329 2.35292H38.8231C39.3431 2.35292 39.842 2.55951 40.2097 2.92715C40.5774 3.29479 40.7839 3.79375 40.7839 4.31373V9.41177H2.35253L2.35249 4.31373ZM40.7839 35.6863C40.7839 36.2062 40.5773 36.7052 40.2096 37.0729C39.842 37.4405 39.343 37.6471 38.8231 37.6471H4.31326C3.7933 37.6471 3.29437 37.4405 2.92668 37.0729C2.559 36.7052 2.35246 36.2063 2.35246 35.6863V11.7643H40.7838L40.7839 35.6863ZM6.27406 30.8078C6.27406 31.5816 6.58149 32.3239 7.12876 32.8708C7.67568 33.4181 8.41799 33.7255 9.19182 33.7255H17.9135C18.6873 33.7255 19.4292 33.4181 19.9765 32.8708C20.5235 32.3239 20.8309 31.5816 20.8309 30.8078C20.827 29.6471 20.5063 28.509 19.9037 27.5168C19.3011 26.5249 18.4394 25.7156 17.4114 25.1765C18.4842 24.1414 19.0902 22.7143 19.09 21.2234C19.09 19.2451 18.0343 17.4173 16.321 16.4282C14.6078 15.4391 12.4972 15.4391 10.7839 16.4282C9.07074 17.4173 8.01536 19.2451 8.01536 21.2234C8.01501 22.7143 8.62075 24.1414 9.69361 25.1765C8.66558 25.7157 7.80391 26.5249 7.20129 27.5168C6.5987 28.509 6.27827 29.6471 6.27406 30.8078ZM13.5524 18.0391C14.3847 18.0391 15.1827 18.3697 15.7709 18.9579C16.3591 19.5465 16.6897 20.3445 16.6897 21.1764C16.6897 22.0083 16.3591 22.8063 15.7709 23.3949C15.1827 23.9831 14.3847 24.3136 13.5524 24.3136C12.7205 24.3136 11.9225 23.9831 11.3343 23.3949C10.7457 22.8063 10.4151 22.0083 10.4151 21.1764C10.4151 20.3445 10.7457 19.5464 11.3343 18.9579C11.9225 18.3697 12.7205 18.0391 13.5524 18.0391ZM12.6739 26.7608H14.4152C15.4831 26.7688 16.5045 27.1992 17.2565 27.9572C18.009 28.7153 18.4309 29.7398 18.4309 30.8078C18.4309 31.1197 18.1781 31.3725 17.8662 31.3725H9.19183C8.87986 31.3725 8.62706 31.1197 8.62706 30.8078C8.62706 29.7345 9.05353 28.7052 9.81231 27.946C10.5714 27.1873 11.6007 26.7608 12.6739 26.7608ZM8.62684 5.88208C8.61844 6.52844 8.09673 7.05013 7.45037 7.05855H5.88174C5.23188 7.05855 4.70527 6.53194 4.70527 5.88208C4.70527 5.23222 5.23188 4.70561 5.88174 4.70561H7.45037C8.09673 4.71402 8.61841 5.23573 8.62684 5.88208ZM14.9014 5.88208C14.8929 6.52844 14.3712 7.05013 13.7249 7.05855H12.1563C11.5064 7.05855 10.9798 6.53194 10.9798 5.88208C10.9798 5.23222 11.5064 4.70561 12.1563 4.70561H13.7249C14.3712 4.71402 14.8929 5.23573 14.9014 5.88208ZM21.1759 5.88208C21.1675 6.52844 20.6457 7.05013 19.9994 7.05855H18.4308C17.7809 7.05855 17.2543 6.53194 17.2543 5.88208C17.2543 5.23222 17.7809 4.70561 18.4308 4.70561H19.9994C20.6457 4.71402 21.1674 5.23573 21.1759 5.88208Z" fill="url(#paint0_linear_221_1533)"/>
<path d="M36.2195 23.4532C36.6785 23.9122 36.6789 24.657 36.2199 25.116L33.0822 28.253C32.6232 28.7121 31.8788 28.7121 31.4197 28.253C30.9607 27.794 30.9604 27.0496 31.4194 26.5905L32.549 25.461H25.9765C25.3267 25.461 24.8001 24.9343 24.8001 24.2845C24.8001 23.6346 25.3267 23.108 25.9765 23.108H32.5493L31.4198 21.9784C30.9877 21.5152 31.0003 20.7925 31.4485 20.3446C31.8964 19.8965 32.619 19.8838 33.0823 20.3159L36.2195 23.4532Z" fill="url(#paint1_linear_221_1533)"/>
<defs>
<linearGradient id="paint0_linear_221_1533" x1="21.5686" y1="0" x2="21.5686" y2="40" gradientUnits="userSpaceOnUse">
<stop stop-color="#FF9C8E"/>
<stop offset="1" stop-color="#F5533D"/>
</linearGradient>
<linearGradient id="paint1_linear_221_1533" x1="30.682" y1="20" x2="30.682" y2="28.5973" gradientUnits="userSpaceOnUse">
<stop stop-color="#FF9C8E"/>
<stop offset="1" stop-color="#F5533D"/>
</linearGradient>
</defs>
</svg>
