<svg width="24" height="25" viewBox="0 0 24 25" fill="none" xmlns="http://www.w3.org/2000/svg">
<path d="M22.0802 2.37419H1.9202C1.49774 2.37419 1.1502 2.69844 1.1502 3.10419V22.1442C1.1502 22.3389 1.23215 22.5247 1.3768 22.6613C1.52136 22.7978 1.71676 22.8742 1.9202 22.8742H22.0802C22.2836 22.8742 22.479 22.7978 22.6236 22.6613C22.7682 22.5247 22.8502 22.3389 22.8502 22.1442V3.10419C22.8502 2.90953 22.7682 2.72368 22.6236 2.58706C22.479 2.45054 22.2836 2.37419 22.0802 2.37419ZM21.3102 21.4142H2.6902V3.83419H21.3102V21.4142Z" fill="white" stroke="white" stroke-width="0.1"/>
<path d="M6.23953 19.7106C6.46499 19.7106 6.68415 19.6313 6.84833 19.4852C7.01293 19.3388 7.10953 19.1363 7.10953 18.9206V12.5206C7.10953 12.0683 6.70285 11.7306 6.23953 11.7306C5.77622 11.7306 5.36953 12.0683 5.36953 12.5206V18.9206C5.36953 19.1363 5.46614 19.3388 5.63073 19.4852C5.79492 19.6313 6.01407 19.7106 6.23953 19.7106Z" fill="white" stroke="white" stroke-width="0.3"/>
<path d="M12.6091 19.4852C12.4449 19.6314 12.2257 19.7107 12.0003 19.7107C11.7748 19.7107 11.5557 19.6314 11.3915 19.4852M12.6091 19.4852C12.7737 19.3389 12.8703 19.1364 12.8703 18.9207V9.96068C12.8703 9.50832 12.4636 9.17068 12.0003 9.17068C11.537 9.17068 11.1303 9.50832 11.1303 9.96068V18.9207C11.1303 19.1364 11.2269 19.3389 11.3915 19.4852M12.6091 19.4852C12.609 19.4852 12.609 19.4853 12.609 19.4853L12.5093 19.3732L12.6091 19.4852ZM11.3915 19.4852L11.4912 19.3732L11.3916 19.4853C11.3915 19.4853 11.3915 19.4852 11.3915 19.4852Z" fill="white" stroke="white" stroke-width="0.3"/>
<path d="M18.3688 19.4852C18.2047 19.6313 17.9855 19.7107 17.76 19.7107C17.5346 19.7107 17.3154 19.6313 17.1512 19.4852M18.3688 19.4852C18.5334 19.3388 18.63 19.1364 18.63 18.9207V6.12065C18.63 5.66829 18.2234 5.33065 17.76 5.33065C17.2967 5.33065 16.89 5.66829 16.89 6.12065V18.9207C16.89 19.1364 16.9866 19.3388 17.1512 19.4852M18.3688 19.4852C18.3688 19.4852 18.3688 19.4852 18.3688 19.4853L18.2691 19.3731L18.3688 19.4852ZM17.1512 19.4852L17.251 19.3731L17.1513 19.4853C17.1513 19.4852 17.1513 19.4852 17.1512 19.4852Z" fill="white" stroke="white" stroke-width="0.3"/>
</svg>
